# xmcd CD Database Entry
#
# Track frame offsets:
# 150
# 13738
# 28363
# 43288
# 57013
# 71863
# 87538
# 100813
# 113638
# 127813
# 141688
# 155488
# 165238
# 178775
# 193363
# 206788
#
# Disc length: 2963 seconds
#
# Revision: 6
# Processed by: cddbd v1.4PL0 Copyright (c) Steve Scherf et al.
# Submitted via: tcd 2.0b
#
DISCID=f10b9110
DTITLE=Billie Holiday/16 Most Requested Songs
DYEAR=1900
DGENRE=
TTITLE0=Miss Brown To You
TTITLE1=If You Were Mine
TTITLE2=These Foolish Things
TTITLE3=The Way You Look Tonight
TTITLE4=Pennies From Heaven
TTITLE5=I Can't Give You Anything But Love
TTITLE6=I've Got My Love To Keep Me Warm
TTITLE7=Why Was I Born?
TTITLE8=Carelessly
TTITLE9=Easy Living
TTITLE10=My Man
TTITLE11=I'm Gonna Lock My Heart And Throw Away The Key
TTITLE12=Body and Soul
TTITLE13=Gloomy Sunday
TTITLE14=God Bless The Child
TTITLE15=I'm A Fool To Want You
EXTD=
EXTT0=
EXTT1=
EXTT2=
EXTT3=
EXTT4=
EXTT5=
EXTT6=
EXTT7=
EXTT8=
EXTT9=
EXTT10=
EXTT11=
EXTT12=
EXTT13=
EXTT14=
EXTT15=
PLAYORDER=
